# xmcd CD database file
#
# Track frame offsets:
#	182
#	23407
#	40907
#	56782
#	75207
#	91307
#	107132
#	121682
#	146732
#	167857
#
# Disc length: 2646 seconds
#
# Revision: 3
# Processed by: cddbd v1.5.2PL0 Copyright (c) Steve Scherf et al.
# Submitted via: CDex 1.72
#
DISCID=750a540a
DTITLE=Walker, Jerry Jeff (USA-92-Hill Country Rain-cty) - Hill Country Rain
DYEAR=1992
DGENRE=Country
TTITLE0=Rock and Roll My Baby
TTITLE1=So Bad Last Night
TTITLE2=Singin' The Dinosaur Blues
TTITLE3=Time To Stay Home
TTITLE4=Last Night I Fell In Love Again
TTITLE5=The Man He Used To Be
TTITLE6=Curly ans Lil
TTITLE7=The Dutchman
TTITLE8=To The Artist
TTITLE9=Hill Country Rain
EXTD=YEAR: 1992
EXTT0=
EXTT1=
EXTT2=
EXTT3=
EXTT4=
EXTT5=
EXTT6=
EXTT7=
EXTT8=
EXTT9=
PLAYORDER=
